<svg width="26" height="32" viewBox="0 0 26 32" fill="none" xmlns="http://www.w3.org/2000/svg">
<path d="M11.3953 31.281C7.86094 27.258 0 17.5078 0 12.0311C0 5.38644 5.82021 0 13 0C20.1771 0 26 5.38644 26 12.0311C26 17.5078 18.0781 27.258 14.6047 31.281C13.7719 32.2397 12.2281 32.2397 11.3953 31.281ZM13 16.0415C15.3901 16.0415 17.3333 14.2431 17.3333 12.0311C17.3333 9.81916 15.3901 8.02076 13 8.02076C10.6099 8.02076 8.66667 9.81916 8.66667 12.0311C8.66667 14.2431 10.6099 16.0415 13 16.0415Z" fill="#FF5A1F"/>
</svg>
